<mxfile host="app.diagrams.net" agent="Mozilla/5.0 (Windows NT 10.0; Win64; x64) AppleWebKit/537.36 (KHTML, like Gecko) Chrome/131.0.0.0 Safari/537.36" version="24.8.6">
  <diagram name="Page-1" id="4oxa7ssw-p5lVka6QcX9">
    <mxGraphModel grid="0" page="0" gridSize="10" guides="1" tooltips="1" connect="1" arrows="1" fold="1" pageScale="1" pageWidth="850" pageHeight="1100" math="0" shadow="0">
      <root>
        <mxCell id="0" />
        <mxCell id="1" parent="0" />
        <mxCell id="jWU5LnK-h6dxIZ_4M1na-3" value="Color Picker" style="html=1;whiteSpace=wrap;" vertex="1" parent="1">
          <mxGeometry x="5" y="1011" width="110" height="50" as="geometry" />
        </mxCell>
        <mxCell id="jWU5LnK-h6dxIZ_4M1na-7" value="Acumulator" style="html=1;whiteSpace=wrap;" vertex="1" parent="1">
          <mxGeometry x="389" y="586" width="110" height="50" as="geometry" />
        </mxCell>
        <mxCell id="jWU5LnK-h6dxIZ_4M1na-33" value="Actor" style="shape=umlActor;verticalLabelPosition=bottom;verticalAlign=top;html=1;outlineConnect=0;" vertex="1" parent="1">
          <mxGeometry x="-291" y="567" width="30" height="60" as="geometry" />
        </mxCell>
        <mxCell id="jWU5LnK-h6dxIZ_4M1na-34" value="" style="endArrow=none;dashed=1;html=1;rounded=0;fontSize=12;startSize=8;endSize=8;curved=1;" edge="1" parent="1">
          <mxGeometry width="50" height="50" relative="1" as="geometry">
            <mxPoint x="-259" y="1182" as="sourcePoint" />
            <mxPoint x="-261" y="627" as="targetPoint" />
          </mxGeometry>
        </mxCell>
        <mxCell id="jWU5LnK-h6dxIZ_4M1na-35" value="«interface»&lt;br&gt;&lt;b&gt;Graphic User Interface&lt;/b&gt;" style="html=1;whiteSpace=wrap;" vertex="1" parent="1">
          <mxGeometry x="-192" y="572" width="110" height="50" as="geometry" />
        </mxCell>
        <mxCell id="jWU5LnK-h6dxIZ_4M1na-36" value="" style="endArrow=none;dashed=1;html=1;rounded=0;fontSize=12;startSize=8;endSize=8;curved=1;" edge="1" parent="1">
          <mxGeometry width="50" height="50" relative="1" as="geometry">
            <mxPoint x="-127" y="1207" as="sourcePoint" />
            <mxPoint x="-133" y="620" as="targetPoint" />
          </mxGeometry>
        </mxCell>
        <mxCell id="jWU5LnK-h6dxIZ_4M1na-37" value="&lt;p style=&quot;margin:0px;margin-top:4px;text-align:center;text-decoration:underline;&quot;&gt;&lt;b&gt;instructions&lt;/b&gt;&lt;/p&gt;&lt;hr size=&quot;1&quot; style=&quot;border-style:solid;&quot;&gt;&lt;p style=&quot;margin:0px;margin-left:8px;&quot;&gt;fields XXX = 6 or 4 digit word&lt;/p&gt;" style="verticalAlign=top;align=left;overflow=fill;html=1;whiteSpace=wrap;" vertex="1" parent="1">
          <mxGeometry x="-20" y="555" width="160" height="90" as="geometry" />
        </mxCell>
        <mxCell id="jWU5LnK-h6dxIZ_4M1na-38" value="Memory" style="swimlane;fontStyle=0;childLayout=stackLayout;horizontal=1;startSize=26;fillColor=none;horizontalStack=0;resizeParent=1;resizeParentMax=0;resizeLast=0;collapsible=1;marginBottom=0;whiteSpace=wrap;html=1;" vertex="1" parent="1">
          <mxGeometry x="199" y="585" width="140" height="52" as="geometry" />
        </mxCell>
        <mxCell id="jWU5LnK-h6dxIZ_4M1na-39" value="lots of slots" style="text;strokeColor=none;fillColor=none;align=left;verticalAlign=top;spacingLeft=4;spacingRight=4;overflow=hidden;rotatable=0;points=[[0,0.5],[1,0.5]];portConstraint=eastwest;whiteSpace=wrap;html=1;" vertex="1" parent="jWU5LnK-h6dxIZ_4M1na-38">
          <mxGeometry y="26" width="140" height="26" as="geometry" />
        </mxCell>
        <mxCell id="jWU5LnK-h6dxIZ_4M1na-40" value="" style="endArrow=none;dashed=1;html=1;rounded=0;fontSize=12;startSize=8;endSize=8;curved=1;" edge="1" parent="1">
          <mxGeometry width="50" height="50" relative="1" as="geometry">
            <mxPoint x="67" y="992" as="sourcePoint" />
            <mxPoint x="64" y="654" as="targetPoint" />
          </mxGeometry>
        </mxCell>
        <mxCell id="jWU5LnK-h6dxIZ_4M1na-41" value="" style="endArrow=none;dashed=1;html=1;rounded=0;fontSize=12;startSize=8;endSize=8;curved=1;" edge="1" parent="1">
          <mxGeometry width="50" height="50" relative="1" as="geometry">
            <mxPoint x="275" y="1000" as="sourcePoint" />
            <mxPoint x="277" y="649" as="targetPoint" />
          </mxGeometry>
        </mxCell>
        <mxCell id="jWU5LnK-h6dxIZ_4M1na-42" value="" style="endArrow=none;dashed=1;html=1;rounded=0;fontSize=12;startSize=8;endSize=8;curved=1;" edge="1" parent="1">
          <mxGeometry width="50" height="50" relative="1" as="geometry">
            <mxPoint x="439" y="959" as="sourcePoint" />
            <mxPoint x="449" y="649" as="targetPoint" />
          </mxGeometry>
        </mxCell>
        <mxCell id="jWU5LnK-h6dxIZ_4M1na-43" value="Types Words" style="html=1;verticalAlign=bottom;endArrow=block;curved=0;rounded=0;fontSize=12;startSize=8;endSize=8;" edge="1" parent="1">
          <mxGeometry width="80" relative="1" as="geometry">
            <mxPoint x="-247" y="659" as="sourcePoint" />
            <mxPoint x="-167" y="659" as="targetPoint" />
          </mxGeometry>
        </mxCell>
        <mxCell id="jWU5LnK-h6dxIZ_4M1na-44" value="Filles instructions" style="html=1;verticalAlign=bottom;endArrow=block;curved=0;rounded=0;fontSize=12;startSize=8;endSize=8;" edge="1" parent="1">
          <mxGeometry width="80" relative="1" as="geometry">
            <mxPoint x="-82" y="661" as="sourcePoint" />
            <mxPoint x="-2" y="661" as="targetPoint" />
          </mxGeometry>
        </mxCell>
        <mxCell id="jWU5LnK-h6dxIZ_4M1na-45" value="Instructions display on screen" style="html=1;verticalAlign=bottom;endArrow=block;curved=0;rounded=0;fontSize=12;startSize=8;endSize=8;" edge="1" parent="1">
          <mxGeometry width="80" relative="1" as="geometry">
            <mxPoint x="-166" y="700" as="sourcePoint" />
            <mxPoint x="-241" y="702" as="targetPoint" />
          </mxGeometry>
        </mxCell>
        <mxCell id="jWU5LnK-h6dxIZ_4M1na-47" value="number is stored in Memory" style="html=1;verticalAlign=bottom;endArrow=block;curved=0;rounded=0;fontSize=12;startSize=8;endSize=8;" edge="1" parent="1">
          <mxGeometry width="80" relative="1" as="geometry">
            <mxPoint x="73" y="745" as="sourcePoint" />
            <mxPoint x="266" y="745" as="targetPoint" />
          </mxGeometry>
        </mxCell>
        <mxCell id="jWU5LnK-h6dxIZ_4M1na-48" value="number is stored in Memory" style="html=1;verticalAlign=bottom;endArrow=block;curved=0;rounded=0;fontSize=12;startSize=8;endSize=8;" edge="1" parent="1">
          <mxGeometry width="80" relative="1" as="geometry">
            <mxPoint x="73" y="781" as="sourcePoint" />
            <mxPoint x="266" y="781" as="targetPoint" />
          </mxGeometry>
        </mxCell>
        <mxCell id="jWU5LnK-h6dxIZ_4M1na-49" value="Number is read from&amp;nbsp;&lt;div&gt;memory and&amp;nbsp;&lt;div&gt;stored in the Accumulator&lt;/div&gt;&lt;div&gt;&lt;br&gt;&lt;/div&gt;&lt;/div&gt;" style="html=1;verticalAlign=bottom;endArrow=block;curved=0;rounded=0;fontSize=12;startSize=8;endSize=8;" edge="1" parent="1">
          <mxGeometry x="0.025" y="2" width="80" relative="1" as="geometry">
            <mxPoint x="330" y="817" as="sourcePoint" />
            <mxPoint x="410" y="817" as="targetPoint" />
            <mxPoint as="offset" />
          </mxGeometry>
        </mxCell>
        <mxCell id="jWU5LnK-h6dxIZ_4M1na-50" value="Addition instruction called" style="html=1;verticalAlign=bottom;endArrow=block;curved=0;rounded=0;fontSize=12;startSize=8;endSize=8;" edge="1" parent="1">
          <mxGeometry width="80" relative="1" as="geometry">
            <mxPoint x="114" y="867" as="sourcePoint" />
            <mxPoint x="194" y="867" as="targetPoint" />
          </mxGeometry>
        </mxCell>
        <mxCell id="jWU5LnK-h6dxIZ_4M1na-51" value="Memory is called and the&amp;nbsp;&lt;div&gt;value is added to the accumulator&lt;/div&gt;" style="html=1;verticalAlign=bottom;endArrow=block;curved=0;rounded=0;fontSize=12;startSize=8;endSize=8;" edge="1" parent="1">
          <mxGeometry x="0.15" y="11" width="80" relative="1" as="geometry">
            <mxPoint x="320" y="865" as="sourcePoint" />
            <mxPoint x="400" y="865" as="targetPoint" />
            <mxPoint as="offset" />
          </mxGeometry>
        </mxCell>
        <mxCell id="jWU5LnK-h6dxIZ_4M1na-53" value="Result is stored in Memory" style="html=1;verticalAlign=bottom;endArrow=block;curved=0;rounded=0;fontSize=12;startSize=8;endSize=8;" edge="1" parent="1">
          <mxGeometry width="80" relative="1" as="geometry">
            <mxPoint x="423" y="939" as="sourcePoint" />
            <mxPoint x="287" y="939" as="targetPoint" />
          </mxGeometry>
        </mxCell>
        <mxCell id="jWU5LnK-h6dxIZ_4M1na-54" value="Result is then output to the screen" style="html=1;verticalAlign=bottom;endArrow=block;curved=0;rounded=0;fontSize=12;startSize=8;endSize=8;" edge="1" parent="1">
          <mxGeometry width="80" relative="1" as="geometry">
            <mxPoint x="246" y="943" as="sourcePoint" />
            <mxPoint x="-117" y="946" as="targetPoint" />
          </mxGeometry>
        </mxCell>
        <mxCell id="jWU5LnK-h6dxIZ_4M1na-55" value="Displays the result" style="html=1;verticalAlign=bottom;endArrow=block;curved=0;rounded=0;fontSize=12;startSize=8;endSize=8;" edge="1" parent="1">
          <mxGeometry width="80" relative="1" as="geometry">
            <mxPoint x="-143" y="980" as="sourcePoint" />
            <mxPoint x="-244" y="980" as="targetPoint" />
          </mxGeometry>
        </mxCell>
        <mxCell id="jWU5LnK-h6dxIZ_4M1na-56" value="selects change color" style="html=1;verticalAlign=bottom;endArrow=block;curved=0;rounded=0;fontSize=12;startSize=8;endSize=8;" edge="1" parent="1">
          <mxGeometry width="80" relative="1" as="geometry">
            <mxPoint x="-231" y="1048" as="sourcePoint" />
            <mxPoint x="-11" y="1042" as="targetPoint" />
          </mxGeometry>
        </mxCell>
        <mxCell id="jWU5LnK-h6dxIZ_4M1na-57" value="displays color menu" style="html=1;verticalAlign=bottom;endArrow=block;curved=0;rounded=0;fontSize=12;startSize=8;endSize=8;" edge="1" parent="1">
          <mxGeometry width="80" relative="1" as="geometry">
            <mxPoint x="13" y="1092" as="sourcePoint" />
            <mxPoint x="-75" y="1092" as="targetPoint" />
          </mxGeometry>
        </mxCell>
        <mxCell id="jWU5LnK-h6dxIZ_4M1na-58" value="selects color" style="html=1;verticalAlign=bottom;endArrow=block;curved=0;rounded=0;fontSize=12;startSize=8;endSize=8;" edge="1" parent="1">
          <mxGeometry width="80" relative="1" as="geometry">
            <mxPoint x="-230" y="1143" as="sourcePoint" />
            <mxPoint x="37" y="1140" as="targetPoint" />
          </mxGeometry>
        </mxCell>
        <mxCell id="jWU5LnK-h6dxIZ_4M1na-59" value="" style="endArrow=none;dashed=1;html=1;rounded=0;fontSize=12;startSize=8;endSize=8;curved=1;" edge="1" parent="1">
          <mxGeometry width="50" height="50" relative="1" as="geometry">
            <mxPoint x="64" y="1205" as="sourcePoint" />
            <mxPoint x="64" y="1059" as="targetPoint" />
          </mxGeometry>
        </mxCell>
        <mxCell id="jWU5LnK-h6dxIZ_4M1na-60" value="Updates GUI" style="html=1;verticalAlign=bottom;endArrow=block;curved=0;rounded=0;fontSize=12;startSize=8;endSize=8;" edge="1" parent="1">
          <mxGeometry width="80" relative="1" as="geometry">
            <mxPoint x="31" y="1187" as="sourcePoint" />
            <mxPoint x="-96" y="1185" as="targetPoint" />
          </mxGeometry>
        </mxCell>
        <mxCell id="jWU5LnK-h6dxIZ_4M1na-61" value="&lt;font style=&quot;font-size: 12px;&quot;&gt;Ends Program&lt;/font&gt;" style="text;html=1;align=center;verticalAlign=middle;resizable=0;points=[];autosize=1;strokeColor=none;fillColor=none;fontSize=16;" vertex="1" parent="1">
          <mxGeometry x="-305.5" y="1180.5" width="95" height="31" as="geometry" />
        </mxCell>
      </root>
    </mxGraphModel>
  </diagram>
</mxfile>
